<?xml version="1.0" encoding="UTF-8"?>
<!DOCTYPE svg PUBLIC "-//W3C//DTD SVG 1.1//EN" "http://www.w3.org/Graphics/SVG/1.1/DTD/svg11.dtd">
<!-- Creator: CorelDRAW -->
<svg xmlns="http://www.w3.org/2000/svg" xml:space="preserve" width="204px" height="122px" version="1.1" style="shape-rendering:geometricPrecision; text-rendering:geometricPrecision; image-rendering:optimizeQuality; fill-rule:evenodd; clip-rule:evenodd"
viewBox="0 0 204 122"
 xmlns:xlink="http://www.w3.org/1999/xlink"
 xmlns:xodm="http://www.corel.com/coreldraw/odm/2003">
 <defs>
  <style type="text/css">
   <![CDATA[
    .str0 {stroke:#6E00B3;stroke-width:12.5;stroke-miterlimit:22.9256}
    .fil10 {fill:none}
    .fil9 {fill:#2383B8}
    .fil8 {fill:#26A9DE}
    .fil7 {fill:#79A142}
    .fil6 {fill:#95C93C}
    .fil3 {fill:#C3288C}
    .fil2 {fill:#D94799}
    .fil11 {fill:yellow}
    .fil4 {fill:white}
    .fil5 {fill:black;fill-rule:nonzero}
    .fil0 {fill:#6E00B3;fill-rule:nonzero}
    .fil1 {fill:white;fill-rule:nonzero}
   ]]>
  </style>
 </defs>
 <g id="Capa_x0020_1">
  <metadata id="CorelCorpID_0Corel-Layer"/>
  <g id="_2289353734816">
   <path class="fil0" d="M48.97 16.28l0 -5.89c0,-3.18 2.58,-5.76 5.75,-5.76l9.72 0c3.77,0 7.28,0.8 10.07,2.75l0.08 -0.08c1.76,-1.77 4.2,-2.86 6.89,-2.86 2.69,0 5.12,1.09 6.88,2.86 1.77,1.76 2.86,4.19 2.86,6.88 0,0.79 -0.1,1.57 -0.28,2.3l3.28 0c0.51,0 1.01,0.07 1.48,0.2 1.33,-0.49 2.73,-0.77 4.18,-0.77 3.02,0 6.76,0.89 9.66,3.18 2.55,-2 5.74,-3.18 9.35,-3.18 1.75,0 3.38,0.27 4.9,0.76 0.47,-0.12 0.97,-0.19 1.48,-0.19l6.72 0c1.5,0 2.86,0.58 3.89,1.52 2.58,-1.34 5.6,-2.09 8.81,-2.09 4.71,0 9,1.64 12.14,4.43 1.89,1.67 3.35,3.74 4.24,6.11 4.22,-5.26 10.69,-8.62 17.95,-8.62 12.69,0 22.98,10.29 22.98,22.98 0,10.44 -6.96,19.25 -16.49,22.05 1.66,0.84 2.54,1.57 2.54,1.57 2.07,1.65 2.79,4.56 1.57,7.03l-3.59 7.25c-0.16,0.37 -0.37,0.73 -0.61,1.07 -1.86,2.57 -5.45,3.14 -8.02,1.28 0,0 -0.53,-0.38 -1.96,-0.38 -0.47,0 -0.91,0.2 -1.23,0.53 -0.35,0.36 -0.57,0.9 -0.57,1.52 0,0.65 0.23,1.21 0.59,1.58 0.31,0.33 0.74,0.53 1.21,0.53 1.18,0 1.74,-0.26 1.91,-0.35 0.27,-0.21 0.58,-0.39 0.9,-0.55 2.85,-1.39 6.29,-0.2 7.68,2.65l3.72 7.61 -0.01 0.01c1.16,2.39 0.54,5.35 -1.65,7.05 -0.02,0.01 -5.14,4.06 -14.16,4.06 -5.23,0 -10.27,-1.84 -14.31,-4.9 -0.75,2.3 -2.92,3.97 -5.47,3.97l-10.96 0c-2.23,0 -4.17,-1.28 -5.12,-3.14 -3.46,2.57 -7.74,4.07 -12.56,4.07 -1.62,0 -3.17,-0.16 -4.65,-0.47l0 9.88c0,3.18 -2.57,5.75 -5.75,5.75l-10.96 0c-3.17,0 -5.75,-2.57 -5.75,-5.75l0 -10.34 -26.91 0c-3.17,0 -5.75,-2.58 -5.75,-5.75l0 -2.45c-6.14,7.22 -15.28,11.8 -25.5,11.8 -18.49,0 -33.47,-14.98 -33.47,-33.47 0,-10.09 4.47,-19.14 11.54,-25.28 -9.45,-3.4 -16.21,-12.45 -16.21,-23.07 0,-13.55 10.98,-24.53 24.52,-24.53 10.03,0 18.65,6.02 22.45,14.64z"/>
   <path class="fil1" d="M100.61 47.56l-29.22 0 0 51.08 29.22 0 0 -10.22 -17.58 0 0 -10.27 16.84 0 0 -10.22 -16.84 0 0 -10.15 17.58 0 0 -10.22zm-45.89 -37.17l0 31.32 11.89 0c6.49,0 10.25,-3.57 10.25,-8.73 0,-5.05 -2.77,-7.22 -6.68,-7.9 2.65,-1.37 3.91,-3.83 3.91,-6.72 0,-5.96 -4.25,-7.97 -9.65,-7.97l-9.72 0zm7.14 12.26l0 -6.76 0.57 0c3.11,0 4.75,0.95 4.75,3.19 0,2.62 -1.67,3.57 -4.75,3.57l-0.57 0zm0 13.56l0 -7.41 2.24 0c3.38,0 5.24,1.03 5.24,3.91 0,2.47 -1.86,3.5 -5.24,3.5l-2.24 0zm19.62 -26.01c-2.2,0 -3.99,1.78 -3.99,3.98 0,2.2 1.79,3.99 3.99,3.99 2.2,0 3.98,-1.79 3.98,-3.99 0,-2.2 -1.78,-3.98 -3.98,-3.98zm-3.46 12.03l6.72 0 0 19.48 -6.72 0 0 -19.48zm9.48 19.48l6.72 0 0 -11.01c0,-1.94 1.97,-3.8 3.99,-3.8 2.16,0 3.49,1.86 3.49,3.8l0 11.01 6.72 0 0 -12.83c0,-5.43 -4.97,-7.22 -8.54,-7.22 -2.13,0 -4.06,1.1 -5.58,2.62l-0.08 0 0 -2.05 -6.72 0 0 19.48zm22.24 4.79c2.05,4.75 6.72,5.66 10.78,5.66 6.65,0 11.47,-3.38 11.47,-9.92l0 -20.01 -6.72 0 0 1.75 -0.12 0c-1.59,-1.48 -3.68,-2.32 -6.26,-2.32 -5.7,0 -9.69,4.64 -9.69,10.33 0,5.7 3.99,10.29 9.69,10.29 2.66,0 4.93,-0.38 6.38,-1.97l0 1.44c0,3.46 -2.89,4.56 -4.75,4.56 -2.92,0 -4.56,-1.33 -5.28,-2.51l-5.5 2.7zm6.6 -14.51c0,-2.69 2.02,-4.59 4.56,-4.59 2.51,0 4.52,1.9 4.52,4.59 0,2.66 -1.9,4.56 -4.52,4.56 -2.73,0 -4.56,-1.9 -4.56,-4.56zm16.62 0c0,6 4.71,10.29 11.73,10.29 6.73,0 11.62,-4.29 11.62,-10.29 0,-6.07 -5.16,-10.33 -11.62,-10.33 -6.57,0 -11.73,4.26 -11.73,10.33zm7.14 0c0,-2.69 2.01,-4.59 4.56,-4.59 2.5,0 4.51,1.9 4.51,4.59 0,2.66 -1.89,4.56 -4.51,4.56 -2.74,0 -4.56,-1.9 -4.56,-4.56zm1.1 50.74c0,-9.29 -6.5,-16.78 -15.79,-16.78 -4.33,0 -8.05,1.92 -10.4,4.52l-0.12 0 0 -3.59 -10.84 0 0 47.85 10.96 0 0 -19.13c2.6,2.54 6.13,3.97 10.4,3.97 9.29,0 15.79,-7.56 15.79,-16.84zm-11.64 0c0,4.39 -3.28,7.49 -7.43,7.49 -4.08,0 -7.37,-3.1 -7.37,-7.49 0,-4.34 3.1,-7.43 7.37,-7.43 4.46,0 7.43,3.09 7.43,7.43zm13.53 -12.41l10.96 0 0 28.32 -10.96 0 0 -28.32zm32.35 4.61c3.28,0 5.33,1.48 5.33,1.48l3.71 -7.49c0,0 -3.59,-2.97 -10.65,-2.97 -9.22,0 -17.58,7.55 -17.58,16.9 0,9.29 8.42,16.72 17.58,16.72 7.06,0 10.65,-2.85 10.65,-2.85l-3.71 -7.62c0,0 -2.05,1.49 -5.33,1.49 -4.15,0 -7.55,-3.47 -7.55,-7.86 0,-4.34 3.4,-7.8 7.55,-7.8z"/>
   <path class="fil2" d="M40.14 48.33c14.46,0 26.19,11.73 26.19,26.19 0,14.47 -11.73,26.19 -26.19,26.19 -14.47,0 -26.19,-11.72 -26.19,-26.19 0,-14.46 11.72,-26.19 26.19,-26.19z"/>
   <path class="fil3" d="M60.55 87.41c-4.28,6.77 -11.82,11.25 -20.41,11.25 -13.34,0 -24.14,-10.8 -24.14,-24.14 0,-7.38 3.31,-13.99 8.54,-18.42 -3.51,4.16 -5.63,9.53 -5.63,15.39 0,13.18 10.69,23.87 23.87,23.87 7.06,0 13.4,-3.07 17.77,-7.95z"/>
   <path class="fil4" d="M43.3 51.56c10.03,0 18.87,8.08 19.73,18.04 0.87,9.96 -6.57,18.04 -16.6,18.04 -10.03,0 -18.87,-8.08 -19.73,-18.04 -0.87,-9.96 6.56,-18.04 16.6,-18.04z"/>
   <path class="fil5" d="M47.88 78.47l-2.89 1.97 -7.59 -11.16 -2.72 3.41 -1.59 -2.33 4.57 -6.25 0.31 -0.21 9.91 14.57zm12.29 -8.35l-9.98 6.78 -1.35 -1.98 1.3 -8.22c0.16,-1.15 0.22,-2.09 0.17,-2.83 -0.04,-0.73 -0.23,-1.33 -0.55,-1.81 -0.44,-0.64 -0.95,-1.04 -1.52,-1.19 -0.58,-0.15 -1.18,-0.01 -1.78,0.4 -0.66,0.44 -1.02,1.02 -1.09,1.72 -0.07,0.71 0.14,1.42 0.64,2.16l-2.9 1.97c-0.6,-0.89 -0.94,-1.84 -1.01,-2.86 -0.08,-1.02 0.13,-2.01 0.62,-2.95 0.49,-0.94 1.22,-1.75 2.2,-2.41 1.5,-1.02 2.91,-1.45 4.23,-1.29 1.32,0.15 2.43,0.88 3.32,2.2 0.49,0.72 0.8,1.58 0.93,2.58 0.14,1 0.09,2.3 -0.14,3.91l-0.94 5.74 6.26 -4.26 1.59 2.34z"/>
   <path class="fil6" d="M26.52 6.97c-10.6,0 -19.19,8.6 -19.19,19.2 0,10.6 8.59,19.19 19.19,19.19 10.6,0 19.2,-8.59 19.2,-19.19 0,-10.6 -8.6,-19.2 -19.2,-19.2z"/>
   <path class="fil7" d="M11.56 35.62c3.14,4.95 8.67,8.24 14.96,8.24 9.78,0 17.7,-7.92 17.7,-17.69 0,-5.41 -2.43,-10.26 -6.26,-13.5 2.57,3.04 4.12,6.98 4.12,11.27 0,9.67 -7.83,17.5 -17.49,17.5 -5.17,0 -9.82,-2.25 -13.03,-5.82z"/>
   <path class="fil4" d="M24.21 9.34c-7.35,0 -13.83,5.92 -14.46,13.22 -0.64,7.3 4.81,13.22 12.16,13.22 7.35,0 13.83,-5.92 14.46,-13.22 0.64,-7.3 -4.81,-13.22 -12.16,-13.22z"/>
   <path class="fil5" d="M19.11 26.9l-6.69 -5.77 1.15 -1.33 6.06 -0.65c0.84,-0.1 1.52,-0.23 2.03,-0.41 0.52,-0.17 0.91,-0.42 1.18,-0.74 0.38,-0.43 0.56,-0.86 0.56,-1.3 -0.01,-0.44 -0.21,-0.83 -0.62,-1.18 -0.44,-0.38 -0.92,-0.53 -1.43,-0.44 -0.51,0.08 -0.98,0.37 -1.4,0.86l-1.95 -1.68c0.52,-0.59 1.13,-1.01 1.83,-1.26 0.71,-0.25 1.45,-0.29 2.21,-0.12 0.76,0.17 1.47,0.53 2.12,1.1 1.01,0.87 1.58,1.79 1.72,2.75 0.14,0.96 -0.17,1.89 -0.93,2.76 -0.41,0.49 -0.96,0.87 -1.65,1.16 -0.68,0.28 -1.61,0.5 -2.8,0.64l-4.23 0.42 4.2 3.62 -1.36 1.57zm4.82 -4.22l4.85 -4.48 5.47 4.73 -1.39 1.62 -3.89 -3.35 -2.05 1.88c0.67,0.16 1.27,0.46 1.78,0.9 0.94,0.81 1.42,1.73 1.45,2.76 0.03,1.03 -0.41,2.06 -1.3,3.1 -0.55,0.63 -1.16,1.08 -1.86,1.35 -0.7,0.27 -1.41,0.33 -2.15,0.17 -0.73,-0.15 -1.43,-0.52 -2.11,-1.1 -0.59,-0.51 -1.03,-1.1 -1.33,-1.78 -0.3,-0.67 -0.41,-1.35 -0.33,-2.04 0.08,-0.69 0.35,-1.32 0.82,-1.89l1.91 1.66c-0.31,0.44 -0.44,0.88 -0.39,1.31 0.05,0.44 0.27,0.83 0.66,1.17 0.44,0.38 0.92,0.51 1.43,0.4 0.5,-0.11 1.01,-0.45 1.51,-1.03 0.48,-0.56 0.71,-1.1 0.69,-1.63 -0.02,-0.53 -0.28,-1.01 -0.78,-1.44 -0.46,-0.4 -0.94,-0.6 -1.43,-0.61l-0.34 0.01 -1.22 -1.71z"/>
   <path class="fil8" d="M161.03 40.81c0,9.93 8.06,17.98 17.99,17.98 9.93,0 17.98,-8.05 17.98,-17.98 0,-9.93 -8.05,-17.99 -17.98,-17.99 -9.93,0 -17.99,8.06 -17.99,17.99z"/>
   <path class="fil9" d="M187.87 54.83c4.64,-2.94 7.73,-8.12 7.73,-14.02 0,-9.16 -7.42,-16.58 -16.58,-16.58 -5.07,0 -9.61,2.28 -12.65,5.86 2.85,-2.41 6.54,-3.86 10.57,-3.86 9.05,0 16.39,7.34 16.39,16.39 0,4.85 -2.11,9.21 -5.46,12.21z"/>
   <path class="fil4" d="M163.25 42.98c0,6.89 5.55,12.96 12.39,13.55 6.84,0.59 12.39,-4.51 12.39,-11.4 0,-6.89 -5.55,-12.96 -12.39,-13.55 -6.84,-0.59 -12.39,4.51 -12.39,11.4z"/>
   <path class="fil5" d="M175.48 45.68l0.89 -1.04 1.47 1.27 -0.89 1.03 1.98 1.71 -1.57 1.82 -1.98 -1.71 -3.24 3.75 -1.21 -0.9 -2.74 -9.02 1.59 -1.83 5.7 4.92zm-3.31 3.84l1.74 -2.02 -3.22 -2.79 0.1 0.3 1.38 4.51zm8.03 -9.73c0.05,0.87 -0.19,1.63 -0.74,2.26 -0.69,0.81 -1.53,1.22 -2.5,1.22 -0.98,0.01 -1.94,-0.4 -2.88,-1.21 -0.6,-0.52 -1.04,-1.12 -1.31,-1.82 -0.28,-0.69 -0.36,-1.39 -0.23,-2.1 0.13,-0.71 0.44,-1.36 0.95,-1.95 0.52,-0.6 1.13,-1.01 1.84,-1.21 0.71,-0.21 1.46,-0.2 2.25,0.03 0.79,0.22 1.55,0.65 2.28,1.28l0.67 0.57c1.53,1.32 2.4,2.74 2.62,4.25 0.22,1.51 -0.24,2.98 -1.38,4.43l-0.38 0.45 -1.52 -1.31 0.34 -0.41c1.29,-1.64 1.29,-3.14 -0.01,-4.48zm-1.74 0.61c0.25,-0.29 0.39,-0.61 0.43,-0.95 0.03,-0.34 -0.02,-0.66 -0.14,-0.95l-0.75 -0.65c-0.61,-0.53 -1.19,-0.82 -1.73,-0.88 -0.54,-0.06 -0.98,0.11 -1.32,0.5 -0.32,0.37 -0.41,0.81 -0.28,1.33 0.13,0.52 0.45,1 0.95,1.43 0.5,0.44 1.01,0.68 1.52,0.72 0.52,0.05 0.96,-0.13 1.32,-0.55z"/>
   <g>
    <path class="fil10 str0" d="M147.12 70.21l2.93 0 0 5.03 -2.93 0 0 -5.03zm1.46 -23.48l5.48 7.25 -2.26 11.36c-7.03,0 0.59,0 -6.42,0l-2.28 -11.36 5.48 -7.25zm-5.49 20.14l10.98 0 0 2.01 -10.98 0 0 -2.01z"/>
    <path id="_1" class="fil11" d="M147.12 70.21l2.93 0 0 5.03 -2.93 0 0 -5.03zm1.46 -23.48l5.48 7.25 -2.26 11.36c-7.03,0 0.59,0 -6.42,0l-2.28 -11.36 5.48 -7.25zm-5.49 20.14l10.98 0 0 2.01 -10.98 0 0 -2.01z"/>
   </g>
  </g>
 </g>
</svg>
